<?xml version="1.0" encoding="UTF-8"?>
<svg width="48px" height="48px" viewBox="0 0 48 48" version="1.1" xmlns="http://www.w3.org/2000/svg" xmlns:xlink="http://www.w3.org/1999/xlink">
    <title>2 - Atoms / Atoms / Icon / 48 / ic_check_big</title>
    <g id="2---Atoms-/-Atoms-/-Icon-/-48-/-ic_check_big" stroke="none" stroke-width="1" fill="none" fill-rule="evenodd">
        <circle id="Background" fill="#4CD964" cx="24" cy="24" r="18"></circle>
        <g id="2---Atoms-/-Atoms-/-Icon-/-24-/-ic_check" transform="translate(4.000000, 4.000000)" fill="#FFFFFF">
            <path d="M31.1833333,12.0166667 C30.870389,11.7011456 30.4443959,11.5236695 30,11.5236695 C29.5556041,11.5236695 29.129611,11.7011456 28.8166667,12.0166667 L16.4,24.45 L11.1833333,19.2166667 C10.745683,18.7939024 10.1157353,18.6367357 9.53078554,18.8043699 C8.94583575,18.9720041 8.49475163,19.4389715 8.34745219,20.0293699 C8.20015276,20.6197684 8.37901631,21.2439024 8.81666667,21.6666667 L15.2166667,28.0666667 C15.529611,28.3821878 15.9556041,28.5596639 16.4,28.5596639 C16.8443959,28.5596639 17.270389,28.3821878 17.5833333,28.0666667 L31.1833333,14.4666667 C31.525352,14.1511407 31.7198882,13.7069982 31.7198882,13.2416667 C31.7198882,12.7763352 31.525352,12.3321926 31.1833333,12.0166667 Z" id="Path"></path>
        </g>
    </g>
</svg>