<?xml version="1.0" encoding="UTF-8"?>
<svg width="48px" height="48px" viewBox="0 0 48 48" version="1.1" xmlns="http://www.w3.org/2000/svg" xmlns:xlink="http://www.w3.org/1999/xlink">
    <title>2 - Atoms / Atoms / Icon / 48 / ic_error_big</title>
    <defs>
        <filter id="filter-1">
            <feColorMatrix in="SourceGraphic" type="matrix" values="0 0 0 0 1.000000 0 0 0 0 1.000000 0 0 0 0 1.000000 0 0 0 1.000000 0"></feColorMatrix>
        </filter>
    </defs>
    <g id="2---Atoms-/-Atoms-/-Icon-/-48-/-ic_error_big" stroke="none" stroke-width="1" fill="none" fill-rule="evenodd">
        <circle id="Background" fill="#D8284A" cx="24" cy="24" r="18"></circle>
        <g filter="url(#filter-1)" fill="#FFFFFF" id="2---Atoms-/-Atoms-/-Icon-/-24-/-ic_plus_white">
            <g transform="translate(9.000000, 9.000000)">
                <path d="M17.0542648,14.9975135 L23.3190439,8.7473036 C23.8903367,8.17601085 23.8903367,7.2497623 23.3190439,6.67846956 C22.7477512,6.10717681 21.8215026,6.10717681 21.2502099,6.67846956 L15,12.9432487 L8.74979012,6.67846956 C8.17849738,6.10717683 7.25224884,6.10717684 6.6809561,6.67846957 C6.10966336,7.24976231 6.10966336,8.17601085 6.68095609,8.7473036 L12.9457352,14.9975135 L6.68095609,21.2477233 C6.40514168,21.5212853 6.25,21.8936694 6.25,22.2821404 C6.25,22.6706114 6.40514168,23.0429955 6.68095609,23.3165574 C6.95451801,23.5923718 7.32690211,23.7475135 7.7153731,23.7475135 C8.1038441,23.7475135 8.4762282,23.5923718 8.74979012,23.3165574 L15,17.0517783 L21.2502099,23.3165574 C21.5237718,23.5923718 21.8961559,23.7475135 22.2846269,23.7475135 C22.6730979,23.7475135 23.045482,23.5923718 23.3190439,23.3165574 C23.5948583,23.0429955 23.75,22.6706114 23.75,22.2821404 C23.75,21.8936694 23.5948583,21.5212853 23.3190439,21.2477233 L17.0542648,14.9975135 Z" id="Path"></path>
            </g>
        </g>
    </g>
</svg>